<svg version="1.0" xmlns="http://www.w3.org/2000/svg"
 width="900.000000pt" height="273.000000pt" viewBox="0 0 900.000000 273.000000"
 preserveAspectRatio="xMidYMid meet">
<g transform="translate(0.000000,273.000000) scale(0.100000,-0.100000)"
fill="#000000" stroke="none">
<path d="M1924 2636 c-101 -37 -153 -74 -278 -195 -449 -439 -1465 -1455
-1495 -1496 -35 -48 -50 -78 -85 -173 -24 -65 -22 -248 5 -332 86 -277 367
-448 657 -400 113 19 208 69 311 164 47 44 303 296 569 560 266 265 492 482
502 484 15 3 171 -148 587 -566 521 -521 573 -571 633 -599 105 -49 167 -63
277 -63 127 0 203 23 313 94 62 41 98 79 156 166 59 89 71 119 91 225 29 155
-12 323 -110 450 -46 59 -1509 1531 -1582 1591 -57 48 -87 64 -170 93 -88 31
-294 29 -381 -3z"/>
<path d="M5925 1928 c-3 -7 -4 -301 -3 -653 l3 -640 78 -3 77 -3 -2 653 -3
653 -73 3 c-52 2 -74 -1 -77 -10z"/>
<path d="M7331 1921 c-14 -25 -15 -1259 -2 -1280 7 -10 28 -13 77 -12 37 1 71
4 76 7 4 3 8 150 8 326 l0 321 40 39 c65 61 113 81 197 80 84 -1 121 -21 156
-87 21 -38 22 -57 27 -360 l5 -320 68 -3 c42 -2 74 2 83 9 11 9 14 63 13 298
0 316 -10 401 -52 474 -54 92 -165 145 -281 134 -78 -8 -117 -22 -189 -69 -40
-27 -59 -35 -62 -26 -3 7 -6 119 -7 248 l-3 235 -72 3 c-63 2 -73 0 -82 -17z"/>
<path d="M5081 1884 c-12 -15 -21 -32 -21 -39 0 -7 -13 -43 -29 -81 -16 -38
-43 -104 -60 -146 -17 -43 -45 -113 -62 -155 -17 -43 -45 -112 -61 -153 -16
-41 -36 -88 -44 -103 -8 -16 -14 -35 -14 -42 0 -7 -6 -26 -14 -42 -8 -15 -28
-63 -45 -105 -56 -141 -89 -222 -115 -286 -39 -95 -38 -100 37 -104 41 -2 72
2 91 12 32 16 35 21 61 90 10 25 21 54 26 65 5 11 20 52 34 90 15 39 33 76 42
83 13 9 84 12 274 12 l258 0 20 -26 c12 -15 21 -31 21 -37 0 -24 103 -262 118
-274 21 -16 172 -18 172 -2 0 11 -27 84 -80 214 -15 39 -41 104 -58 145 -16
41 -44 110 -61 153 -17 42 -44 110 -60 150 -16 39 -43 107 -60 150 -75 187
-94 234 -108 272 -22 57 -43 104 -63 145 l-18 35 -80 3 c-76 3 -81 2 -101 -24z
m116 -245 c10 -20 72 -176 118 -299 35 -94 48 -127 61 -152 8 -14 14 -38 14
-52 l0 -26 -210 0 -210 0 0 25 c0 13 6 39 14 57 8 18 21 51 29 73 33 89 78
205 96 250 24 58 40 103 46 128 7 33 25 31 42 -4z"/>
<path d="M6695 1533 c-27 -9 -74 -34 -104 -56 -70 -52 -85 -53 -89 -5 -4 47
-25 60 -95 56 l-52 -3 -3 -590 c-3 -670 -10 -615 84 -615 83 0 84 4 84 196 0
134 3 164 14 164 8 0 41 -13 74 -30 53 -26 72 -30 143 -30 59 0 98 6 142 22
185 67 284 292 245 559 -18 124 -50 197 -110 259 -24 23 -63 51 -88 62 -62 28
-179 33 -245 11z m164 -152 c70 -50 121 -172 121 -290 0 -56 -26 -163 -53
-216 -68 -136 -253 -166 -364 -59 l-43 41 0 210 c0 241 -2 233 93 296 74 49
191 58 246 18z"/>
<path d="M8540 1539 c-19 -6 -46 -13 -60 -16 -59 -15 -180 -103 -180 -132 0
-23 51 -71 74 -71 12 1 35 9 53 18 124 66 159 76 234 66 87 -12 139 -89 139
-208 0 -25 -4 -47 -9 -50 -5 -3 -58 -10 -117 -16 -236 -22 -370 -92 -410 -214
-35 -105 21 -231 124 -276 40 -18 62 -21 142 -17 104 4 140 15 215 66 52 35
76 34 84 -5 7 -38 32 -54 83 -54 43 0 48 2 48 23 0 12 0 167 0 344 -1 320 -1
322 -25 378 -51 114 -134 166 -275 171 -47 2 -101 -1 -120 -7z m244 -515 c13
-5 16 -22 16 -84 0 -69 -3 -82 -25 -109 -14 -16 -55 -44 -90 -60 -140 -67
-264 -24 -265 90 0 58 37 98 117 127 85 30 214 49 247 36z"/>
</g>
</svg>
