<svg version="1.0" xmlns="http://www.w3.org/2000/svg"
 width="300.000000pt" height="193.000000pt" viewBox="0 0 300.000000 193.000000"
 preserveAspectRatio="xMidYMid meet">
<g transform="translate(0.000000,193.000000) scale(0.050000,-0.050000)"
fill="#000000" stroke="none">
<path d="M2780 3788 c-200 -54 -276 -119 -1210 -1046 -1467 -1453 -1377 -1360
-1453 -1514 -262 -536 146 -1188 743 -1188 347 0 399 38 1326 959 438 435 801
795 806 800 5 5 385 -365 844 -822 952 -949 961 -955 1307 -957 646 -2 1053
758 690 1291 -92 136 -2269 2319 -2376 2383 -199 120 -451 155 -677 94z"/>
</g>
</svg>
